:SAMPLES-PER-SECOND 30
:FULLY-SPECIFIED
:DEGREES
743
root  -7.34671 32.5801 56.4528 -49.1458 -0.625531 87.6218
Spine  -1.09389 1.20982 -20.0727
Spine1  -0.0965578 6.24151 6.4376
Neck  3.97569e-016 0 -2.38542e-015
Head  -22.5873 -2.10145 32.8928
R_Clavicle  0.424704 -15.7783 2.18699
R_UpperArm  38.8867 -0.999706 23.4731
R_Forearm  -4.88659 -44.1206 28.6181
R_Hand  -0.555148 9.39135 -15.9386
L_Clavicle  -0.469841 17.7547 2.11437
L_UpperArm  -25.3336 13.0756 22.0096
L_Forearm  1.76018 32.9466 40.2803
L_Hand  0.443251 6.42533 4.41722
L_Thigh  1.15868 5.43409 7.18482
L_Calf  1.04285 -2.83616 20.7562
L_Foot  1.33315 7.4693 -1.88105
L_Toe0  0.505156 0.0343705 -6.1361
R_Thigh  2.9298 2.54711 -23.8063
R_Calf  2.64133 9.85994 32.6874
R_Foot  -2.11145 -2.44274 9.93872
R_Toe0  1.11255 -0.309248 -15.674
744
root  -7.91579 32.5534 56.0056 -50.0238 -0.836171 88.0367
Spine  -0.393523 2.36189 -19.5292
Spine1  0.424631 4.44346 6.27318
Neck  3.97569e-016 0 -2.38542e-015
Head  -24.1058 -1.6036 30.8825
R_Clavicle  0.420023 -15.5688 2.10946
R_UpperArm  37.5423 -1.0062 22.7086
R_Forearm  -3.66562 -42.7528 26.4116
R_Hand  -0.5334 9.17226 -15.7154
L_Clavicle  -0.468322 17.6582 2.15015
L_UpperArm  -26.1911 13.3397 22.944
L_Forearm  1.55326 33.4196 40.892
L_Hand  0.371773 5.78011 3.92622
L_Thigh  3.5614 5.58662 8.06082
L_Calf  1.8756 -3.69606 27.6665
L_Foot  1.53852 7.27093 -0.925645
L_Toe0  0.505156 0.0343604 -6.1361
R_Thigh  2.16249 2.51674 -26.0452
R_Calf  2.74406 10.5186 35.2155
R_Foot  -2.11509 -2.42093 10.0204
R_Toe0  0.862694 -0.299158 -15.8156
745
root  -8.6044 32.4646 55.5157 -50.9922 -1.13652 88.5695
Spine  0.30367 3.45749 -19.4481
Spine1  1.00785 2.81483 6.37615
Neck  3.97569e-016 0 -2.38542e-015
Head  -25.8638 -1.35609 28.9797
R_Clavicle  0.413403 -15.6031 2.00077
R_UpperArm  34.9366 -0.961931 22.6656
R_Forearm  -0.381737 -40.6532 23.9987
R_Hand  -0.536496 9.16828 -15.7373
L_Clavicle  -0.467697 17.6859 2.20804
L_UpperArm  -27.413 13.5009 23.7193
L_Forearm  1.36751 34.7068 42.347
L_Hand  0.311676 5.18643 3.48501
L_Thigh  5.58868 5.86729 8.40791
L_Calf  2.78094 -4.23777 32.4625
L_Foot  1.08011 6.19467 -1.74965
L_Toe0  0.505156 0.0343529 -6.1361
R_Thigh  1.75257 2.30097 -28.3095
R_Calf  2.12657 11.0781 37.5172
R_Foot  -1.88811 -1.85833 9.943
R_Toe0  0.890057 -0.299943 -15.8114
746
root  -9.41564 32.2988 55.0065 -52.0421 -1.23889 88.5689
Spine  1.10959 3.25606 -19.1092
Spine1  1.69761 1.91524 6.08709
Neck  3.97569e-016 0 -2.38542e-015
Head  -27.6919 -1.28579 27.3902
R_Clavicle  0.414322 -15.7287 2.01306
R_UpperArm  30.6392 -1.1507 23.1427
R_Forearm  4.62955 -37.7467 22.1204
R_Hand  -0.609315 8.90087 -16.175
L_Clavicle  -0.466416 17.8697 2.38402
L_UpperArm  -28.5045 13.6709 24.3727
L_Forearm  1.37697 36.463 44.6499
L_Hand  0.253475 4.53106 3.02824
L_Thigh  6.72594 5.48455 8.31691
L_Calf  4.0106 -4.20796 32.6856
L_Foot  0.047652 4.77918 -4.68276
L_Toe0  0.505156 0.0343477 -6.1361
R_Thigh  1.2055 1.38124 -30.3318
R_Calf  1.42433 11.292 38.5237
R_Foot  -1.56025 -0.888453 10.2873
R_Toe0  1.20654 -0.314042 -15.608
747
root  -10.334 32.0548 54.4645 -52.9117 -1.34921 87.8565
Spine  1.92072 1.49099 -18.0441
Spine1  2.40281 2.07498 5.22726
Neck  3.97569e-016 0 -2.38542e-015
Head  -29.2407 -1.04096 26.0039
R_Clavicle  0.428019 -16.0345 2.24552
R_UpperArm  26.9634 -1.60942 23.7931
R_Forearm  9.2539 -34.9639 21.2468
R_Hand  -0.799043 8.33417 -17.4273
L_Clavicle  -0.465712 18.2562 2.55917
L_UpperArm  -28.6763 13.6485 24.9785
L_Forearm  1.26637 38.2383 47.5299
L_Hand  0.222745 3.75785 2.86814
L_Thigh  6.98946 4.55307 7.99204
L_Calf  5.60701 -3.78066 28.4124
L_Foot  -0.559777 3.45904 -6.14307
L_Toe0  0.505156 0.0343446 -6.1361
R_Thigh  -0.164329 0.0159011 -32.0197
R_Calf  1.42729 10.9974 37.1607
R_Foot  -1.22429 0.198278 11.0034
R_Toe0  1.76295 -0.372292 -14.3074
